<svg width="60.00000000000001" height="60.00000000000001" xmlns="http://www.w3.org/2000/svg" style="vector-effect: non-scaling-stroke;" stroke="null" fill="none">

 <g stroke="null">
  <title stroke="null">Layer 1</title>
  <ellipse stroke="#000" ry="14.47671" rx="14.70927" id="svg_2" cy="32.38358" cx="30.98837" fill="#fff"/>
  <rect stroke="#000" id="svg_4" height="1.74418" width="20.58135" y="45.58123" x="20.58142" fill="#fff"/>
  <ellipse stroke="#000" ry="1.80232" rx="10.05812" id="svg_5" cy="18.89524" cx="30.75582" fill="#fff"/>
  <path stroke="#000" id="svg_7" d="m25.5742,9.38154l0,0c0,-2.44032 2.36872,-4.41859 5.29068,-4.41859l0,0c1.40318,0 2.74888,0.46553 3.74108,1.29418c0.9922,0.82865 1.54961,1.95253 1.54961,3.12442l0,0c0,2.44032 -2.36872,4.41859 -5.29068,4.41859l0,0c-2.92196,0 -5.29068,-1.97827 -5.29068,-4.41859zm2.64534,0l0,0c0,1.22016 1.18436,2.2093 2.64534,2.2093c1.46098,0 2.64534,-0.98914 2.64534,-2.2093c0,-1.22016 -1.18436,-2.2093 -2.64534,-2.2093l0,0c-1.46098,0 -2.64534,0.98914 -2.64534,2.2093z" fill="#fff"/>
  <path stroke="#000" id="svg_8" d="m46.28229,14.37467l0,0c0,-2.11923 1.69194,-3.8372 3.77906,-3.8372l0,0c1.00227,0 1.96349,0.40428 2.6722,1.12389c0.70871,0.71961 1.10686,1.69562 1.10686,2.71331l0,0c0,2.11923 -1.69194,3.8372 -3.77906,3.8372l0,0c-2.08712,0 -3.77906,-1.71797 -3.77906,-3.8372zm1.88953,0l0,0c0,1.05961 0.84597,1.9186 1.88953,1.9186c1.04356,0 1.88953,-0.85899 1.88953,-1.9186c0,-1.05961 -0.84597,-1.9186 -1.88953,-1.9186l0,0c-1.04356,0 -1.88953,0.85899 -1.88953,1.9186z" fill="#fff"/>
  <path stroke="#000" id="svg_9" d="m37.49103,10.7834l0,0c0,-2.05501 1.90018,-3.72092 4.24418,-3.72092l0,0c1.12563,0 2.20515,0.39202 3.00109,1.08983c0.79594,0.69781 1.24309,1.64424 1.24309,2.63109l0,0c0,2.05501 -1.90018,3.72092 -4.24418,3.72092l0,0c-2.34399,0 -4.24418,-1.66591 -4.24418,-3.72092zm2.12209,0l0,0c0,1.0275 0.95009,1.86046 2.12209,1.86046c1.172,0 2.12209,-0.83296 2.12209,-1.86046c0,-1.0275 -0.95009,-1.86046 -2.12209,-1.86046l0,0c-1.172,0 -2.12209,0.83296 -2.12209,1.86046z" fill="#fff"/>
  <path stroke="#000" id="svg_21" d="m15.53411,11.1834l0,0c0,-2.27977 2.08239,-4.1279 4.65115,-4.1279l0,0c1.23356,0 2.4166,0.4349 3.28886,1.20903c0.87226,0.77413 1.36229,1.82408 1.36229,2.91886l0,0c0,2.27977 -2.08239,4.1279 -4.65115,4.1279l0,0c-2.56876,0 -4.65115,-1.84812 -4.65115,-4.1279zm2.32558,0l0,0c0,1.13989 1.0412,2.06395 2.32558,2.06395c1.28438,0 2.32558,-0.92406 2.32558,-2.06395c0,-1.13989 -1.0412,-2.06395 -2.32558,-2.06395l0,0c-1.28438,0 -2.32558,0.92406 -2.32558,2.06395z" fill="#fff"/>
  <path id="svg_32" d="m-63.9756,28.40161l0,0c0,-0.41145 0.33355,-0.745 0.745,-0.745l0,0c0.19759,0 0.38708,0.07849 0.52679,0.21821c0.13971,0.13971 0.21821,0.32921 0.21821,0.52679l0,0c0,0.41145 -0.33355,0.745 -0.745,0.745l0,0c-0.41145,0 -0.745,-0.33355 -0.745,-0.745zm0.3725,0l0,0c0,0.20573 0.16677,0.3725 0.3725,0.3725c0.20573,0 0.3725,-0.16677 0.3725,-0.3725c0,-0.20573 -0.16677,-0.3725 -0.3725,-0.3725l0,0c-0.20573,0 -0.3725,0.16677 -0.3725,0.3725z" stroke="#000" fill="#fff"/>
  <path id="svg_33" d="m-43.03437,20.41849l0,0c0,-0.41145 0.33355,-0.745 0.745,-0.745l0,0c0.19759,0 0.38708,0.07849 0.52679,0.21821c0.13971,0.13971 0.21821,0.32921 0.21821,0.52679l0,0c0,0.41145 -0.33355,0.745 -0.745,0.745l0,0c-0.41145,0 -0.745,-0.33355 -0.745,-0.745zm0.3725,0l0,0c0,0.20573 0.16677,0.3725 0.3725,0.3725c0.20573,0 0.3725,-0.16677 0.3725,-0.3725c0,-0.20573 -0.16677,-0.3725 -0.3725,-0.3725l0,0c-0.20573,0 -0.3725,0.16677 -0.3725,0.3725z" stroke="#000" fill="#fff"/>
  <path id="svg_34" d="m10.54167,16.35653l0,0c0,-1.89446 1.66591,-3.43022 3.72092,-3.43022l0,0c0.98685,0 1.93328,0.3614 2.63109,1.00469c0.69781,0.64329 1.08983,1.51578 1.08983,2.42554l0,0c0,1.89446 -1.66591,3.43022 -3.72092,3.43022l0,0c-2.05501,0 -3.72092,-1.53576 -3.72092,-3.43022zm1.86046,0l0,0c0,0.94723 0.83296,1.71511 1.86046,1.71511c1.0275,0 1.86046,-0.76788 1.86046,-1.71511c0,-0.94723 -0.83296,-1.71511 -1.86046,-1.71511l0,0c-1.0275,0 -1.86046,0.76788 -1.86046,1.71511z" stroke="#000" fill="#fff"/>
  <path id="svg_36" d="m-41.5303,6.6505l0,0c0,-0.41145 0.33355,-0.745 0.745,-0.745l0,0c0.19759,0 0.38708,0.07849 0.52679,0.21821c0.13971,0.13971 0.21821,0.32921 0.21821,0.52679l0,0c0,0.41145 -0.33355,0.745 -0.745,0.745l0,0c-0.41145,0 -0.745,-0.33355 -0.745,-0.745zm0.3725,0l0,0c0,0.20573 0.16677,0.3725 0.3725,0.3725c0.20573,0 0.3725,-0.16677 0.3725,-0.3725c0,-0.20573 -0.16677,-0.3725 -0.3725,-0.3725l0,0c-0.20573,0 -0.3725,0.16677 -0.3725,0.3725z" stroke="#000" fill="#fff"/>
  <path id="svg_37" d="m-24.52278,45.75623l0,0c0,-0.41145 0.33355,-0.745 0.745,-0.745l0,0c0.19759,0 0.38708,0.07849 0.52679,0.21821c0.13971,0.13971 0.21821,0.32921 0.21821,0.52679l0,0c0,0.41145 -0.33355,0.745 -0.745,0.745l0,0c-0.41145,0 -0.745,-0.33355 -0.745,-0.745zm0.3725,0l0,0c0,0.20573 0.16677,0.3725 0.3725,0.3725c0.20573,0 0.3725,-0.16677 0.3725,-0.3725c0,-0.20573 -0.16677,-0.3725 -0.3725,-0.3725l0,0c-0.20573,0 -0.3725,0.16677 -0.3725,0.3725z" stroke="#000" fill="#fff"/>
  <path id="svg_38" d="m102.84484,77.44999l0,0c0,-0.03211 0.05206,-0.05814 0.11628,-0.05814l0,0c0.03084,0 0.06041,0.00613 0.08222,0.01703c0.02181,0.0109 0.03406,0.02569 0.03406,0.04111l0,0c0,0.03211 -0.05206,0.05814 -0.11628,0.05814l0,0c-0.06422,0 -0.11628,-0.02603 -0.11628,-0.05814zm0.05814,0l0,0c0,0.01605 0.02603,0.02907 0.05814,0.02907c0.03211,0 0.05814,-0.01301 0.05814,-0.02907c0,-0.01605 -0.02603,-0.02907 -0.05814,-0.02907l0,0c-0.03211,0 -0.05814,0.01301 -0.05814,0.02907z" stroke="#000" fill="#fff"/>
 </g>
</svg>