<?xml version="1.0" encoding="utf-8"?>
<svg viewBox="0 0 500 500" xmlns="http://www.w3.org/2000/svg">
  <ellipse style="fill: rgb(216, 216, 216); stroke: rgb(0, 0, 0);" cx="251.411" cy="263.826" rx="85.497" ry="87.19"/>
  <ellipse style="fill: rgb(216, 216, 216); stroke: rgb(0, 0, 0);" cx="251.693" cy="176.919" rx="46.275" ry="13.262"/>
  <path fill="rgb(255,0,0)" stroke="rgb(255,0,0)" stroke-width="0" d="M 377.801 37.79 C 387.33 36.376 392.042 36.16 397.553 37.79 C 402.441 39.236 407.005 42.208 409.686 45.973 C 412.408 49.795 412.968 55.555 413.637 60.646 C 414.325 65.889 414.272 71.53 413.637 77.011 C 412.986 82.627 411.739 89.564 409.686 93.941 C 408.012 97.511 406.288 99.599 403.196 102.124 C 399.359 105.258 395.58 107.141 387.395 110.589 C 372.875 116.706 333.795 126.322 316.289 134.856 C 303.464 141.107 294.997 146.28 287.79 154.325 C 280.893 162.024 278.957 176.501 273.4 181.695 C 270.091 184.788 265.912 186.248 262.316 186.655 C 262.25 186.696 262.182 186.736 262.113 186.774 C 260.094 187.894 256.863 187.963 252.519 187.903 C 245.831 187.81 233.459 187.321 224.303 184.517 C 214.817 181.612 208.17 174.91 196.65 170.409 C 181.835 164.62 155.359 159.249 140.781 154.043 C 129.856 150.141 120.953 146.538 114.822 142.756 C 110.415 140.038 108.111 138.462 105.51 134.573 C 102.295 129.765 99.374 121.434 98.174 114.822 C 97.018 108.452 96.457 101.169 98.174 95.634 C 99.778 90.461 103.086 86.183 107.485 82.372 C 112.544 77.991 119.849 74.763 127.801 71.65 C 130.476 70.603 133.566 69.52 136.827 68.477 C 134.824 67.343 134.305 66.757 133.163 65.16 C 131.541 62.894 130.34 59.238 129.777 56.131 C 129.214 53.03 129.001 48.833 129.777 46.537 C 130.365 44.796 131.138 44.046 132.88 42.869 C 135.548 41.068 139.855 39.007 145.86 37.79 C 154.871 35.965 173.249 37.106 184.235 35.533 C 193.389 34.222 201.64 30.686 207.937 29.889 C 212.348 29.332 216.268 29.064 218.85 29.776 C 219.149 28.777 219.536 27.84 220.07 26.786 C 221.528 23.906 223.216 21.282 226.56 19.167 C 231.032 16.338 239.607 13.99 246.312 12.959 C 252.965 11.936 259.838 11.363 266.628 12.959 C 273.943 14.68 282.897 21.9 288.637 23.682 C 292.593 24.91 295.635 25.164 298.23 24.81 C 300.311 24.527 300.369 23.179 303.309 22.553 C 309.412 21.254 332.298 18.966 337.734 20.296 C 340.204 20.9 340.573 21.662 341.402 23.4 C 342.593 25.897 343.377 31.32 342.531 35.251 C 341.627 39.444 339.04 43.942 335.629 47.777 C 351.927 43.283 368.598 39.157 377.801 37.79 Z M 160.533 62.621 C 167.626 61.599 173.769 61.933 178.591 62.621 C 182.315 63.152 184.245 63.496 187.621 65.442 C 192.284 68.131 198.966 74.224 203.704 79.269 C 204.124 79.717 204.532 80.177 204.93 80.646 C 207.185 81.96 209.307 83.285 211.323 84.63 C 215.171 87.198 218.46 89.668 221.336 92.336 C 220.091 86.402 219.004 80.118 218.377 74.19 C 218.137 71.918 217.941 69.457 217.786 66.903 C 216.473 66.485 215.291 65.734 214.427 64.032 C 212.645 60.521 215.953 47.216 212.169 44.562 C 208.153 41.746 198.661 47.973 189.878 49.077 C 178.981 50.447 158.146 49.96 150.939 51.334 C 147.32 52.024 145.02 52.724 144.449 53.874 C 144.021 54.737 144.193 55.739 145.86 56.977 C 147.816 58.429 153.503 60.437 160.307 62.654 C 160.383 62.643 160.458 62.632 160.533 62.621 Z M 243.772 97.327 C 244.462 92.518 245.666 89.66 247.158 87.169 C 248.341 85.196 249.134 84.695 251.391 82.937 C 252.801 81.838 254.713 80.45 256.936 78.943 C 257.789 77.22 258.669 75.701 259.573 74.472 C 265.677 66.169 274.735 61.974 282.147 57.542 C 288.822 53.55 296.029 50.373 301.898 48.512 C 306.704 46.989 311.04 48.111 314.878 46.255 C 318.765 44.376 323.741 38.767 325.036 37.226 C 325.537 36.63 325.412 36.473 325.6 36.097 C 325.789 35.721 326.561 35.217 326.165 34.968 C 325 34.24 311.759 35.231 307.542 36.097 C 304.849 36.65 304.448 37.963 301.898 38.354 C 298.215 38.92 292.235 39.216 286.661 37.79 C 279.871 36.053 270.537 28.76 264.088 27.068 C 259.124 25.765 255.616 26.015 251.108 26.503 C 246.241 27.031 239.161 27.827 235.871 30.454 C 233.062 32.697 232.214 35.503 231.357 40.047 C 230.059 46.929 230.521 58.769 231.921 69.957 C 233.588 83.279 239.724 111.343 242.079 115.104 C 242.378 115.581 242.601 115.883 242.831 116.001 C 242.739 108.765 243.128 101.813 243.772 97.327 Z M 382.034 51.334 C 368.125 53.491 323.606 65.578 305.284 71.65 C 292.98 75.728 285.904 78.959 278.196 82.937 C 274.561 84.813 270.845 86.771 267.666 88.754 C 263.321 97.059 259.658 108.331 257.88 115.95 C 257.27 118.567 257.069 121.326 257.031 123.988 C 257.117 124.791 257.212 125.593 257.316 126.391 C 258.771 137.529 263.131 163.192 266.91 164.201 C 269.926 165.006 273 149.681 277.068 144.449 C 280.671 139.814 284.448 137.205 289.483 133.727 C 295.395 129.644 301.693 126.092 310.928 121.876 C 323.454 116.157 348.682 106.753 360.025 103.253 C 367.007 101.098 369.911 101.715 375.262 99.867 C 381.31 97.777 390.319 95.418 394.449 90.837 C 398.304 86.562 399.418 79.773 400.093 73.907 C 400.78 67.931 400.069 58.964 398.4 55.284 C 397.34 52.949 396.04 52.082 393.885 51.334 C 391.055 50.353 388.533 50.326 382.034 51.334 Z M 143.885 81.244 C 136.015 83.925 124.501 88.016 119.054 91.966 C 115.168 94.785 112.866 97.482 111.718 100.995 C 110.539 104.603 111.334 109.231 112.282 113.411 C 113.295 117.878 113.777 122.818 117.926 126.955 C 123.771 132.784 136.509 137.464 148.964 142.192 C 164.231 147.987 189.86 152.359 204.269 157.993 C 215.267 162.294 222.751 169.02 230.228 171.537 C 236.011 173.484 243.846 176.681 245.465 173.795 C 247.768 169.687 236.296 149.416 231.357 139.37 C 227.024 130.558 221.216 120.295 217.813 116.233 C 215.988 114.055 214.053 113.689 213.298 112.847 C 212.884 112.384 213.057 112.152 212.734 111.718 C 212.265 111.088 211.28 110.264 210.476 109.461 C 209.597 108.582 209.092 108.231 207.655 106.639 C 205.288 104.015 198.328 95.485 194.759 91.225 C 193.085 90.384 191.282 89.514 189.314 88.58 C 182.313 85.257 169.661 80.933 158.502 77.037 C 153.863 77.998 148.869 79.545 143.885 81.244 Z" style="fill: rgb(166, 209, 48); stroke: rgb(129, 151, 57); stroke-width: 2px;"/>
</svg>