<svg width="500" height="500" xmlns="http://www.w3.org/2000/svg">

 <g>
  <title>Layer 1</title>
  <ellipse id="svg_1" stroke=" rgb(0, 0, 0)" fill=" rgb(216, 216, 216)" ry="87.19" rx="85.497" cy="323.826" cx="257.411"/>
  <ellipse id="svg_2" stroke=" rgb(0, 0, 0)" fill=" rgb(216, 216, 216)" ry="13.262" rx="46.275" cy="236.919" cx="257.693"/>
  <path id="svg_3" d="m383.801,97.79c9.529,-1.414 14.241,-1.63 19.752,0c4.888,1.446 9.452,4.418 12.133,8.183c2.722,3.822 3.282,9.582 3.951,14.673c0.688,5.243 0.635,10.884 0,16.365c-0.651,5.616 -1.898,12.553 -3.951,16.93c-1.674,3.57 -3.398,5.658 -6.49,8.183c-3.837,3.134 -7.616,5.017 -15.801,8.465c-14.52,6.117 -53.6,15.733 -71.106,24.267c-12.825,6.251 -21.292,11.424 -28.499,19.469c-6.897,7.699 -8.833,22.176 -14.39,27.37c-3.309,3.093 -7.488,4.553 -11.084,4.96c-0.066,0.041 -0.134,0.081 -0.203,0.119c-2.019,1.12 -5.25,1.189 -9.594,1.129c-6.688,-0.093 -19.06,-0.582 -28.216,-3.386c-9.486,-2.905 -16.133,-9.607 -27.653,-14.108c-14.815,-5.789 -41.291,-11.16 -55.869,-16.366c-10.925,-3.902 -19.828,-7.505 -25.959,-11.287c-4.407,-2.718 -6.711,-4.294 -9.312,-8.183c-3.215,-4.808 -6.136,-13.139 -7.336,-19.751c-1.156,-6.37 -1.717,-13.653 0,-19.188c1.604,-5.173 4.912,-9.451 9.311,-13.262c5.059,-4.381 12.364,-7.609 20.316,-10.722c2.675,-1.047 5.765,-2.13 9.026,-3.173c-2.003,-1.134 -2.522,-1.72 -3.664,-3.317c-1.622,-2.266 -2.823,-5.922 -3.386,-9.029c-0.563,-3.101 -0.776,-7.298 0,-9.594c0.588,-1.741 1.361,-2.491 3.103,-3.668c2.668,-1.801 6.975,-3.862 12.98,-5.079c9.011,-1.825 27.389,-0.684 38.375,-2.257c9.154,-1.311 17.405,-4.847 23.702,-5.644c4.411,-0.557 8.331,-0.825 10.913,-0.113c0.299,-0.999 0.686,-1.936 1.22,-2.99c1.458,-2.88 3.146,-5.504 6.49,-7.619c4.472,-2.829 13.047,-5.177 19.752,-6.208c6.653,-1.023 13.526,-1.596 20.316,0c7.315,1.721 16.269,8.941 22.009,10.723c3.956,1.228 6.998,1.482 9.593,1.128c2.081,-0.283 2.139,-1.631 5.079,-2.257c6.103,-1.299 28.989,-3.587 34.425,-2.257c2.47,0.604 2.839,1.366 3.668,3.104c1.191,2.497 1.975,7.92 1.129,11.851c-0.904,4.193 -3.491,8.691 -6.902,12.526c16.298,-4.494 32.969,-8.62 42.172,-9.987zm-217.268,24.831c7.093,-1.022 13.236,-0.688 18.058,0c3.724,0.531 5.654,0.875 9.03,2.821c4.663,2.689 11.345,8.782 16.083,13.827c0.42,0.448 0.828,0.908 1.226,1.377c2.255,1.314 4.377,2.639 6.393,3.984c3.848,2.568 7.137,5.038 10.013,7.706c-1.245,-5.934 -2.332,-12.218 -2.959,-18.146c-0.24,-2.272 -0.436,-4.733 -0.591,-7.287c-1.313,-0.418 -2.495,-1.169 -3.359,-2.871c-1.782,-3.511 1.526,-16.816 -2.258,-19.47c-4.016,-2.816 -13.508,3.411 -22.291,4.515c-10.897,1.37 -31.732,0.883 -38.939,2.257c-3.619,0.69 -5.919,1.39 -6.49,2.54c-0.428,0.863 -0.256,1.865 1.411,3.103c1.956,1.452 7.643,3.46 14.447,5.677c0.076,-0.011 0.151,-0.022 0.226,-0.033zm83.239,34.706c0.69,-4.809 1.894,-7.667 3.386,-10.158c1.183,-1.973 1.976,-2.474 4.233,-4.232c1.41,-1.099 3.322,-2.487 5.545,-3.994c0.853,-1.723 1.733,-3.242 2.637,-4.471c6.104,-8.303 15.162,-12.498 22.574,-16.93c6.675,-3.992 13.882,-7.169 19.751,-9.03c4.806,-1.523 9.142,-0.401 12.98,-2.257c3.887,-1.879 8.863,-7.488 10.158,-9.029c0.501,-0.596 0.376,-0.753 0.564,-1.129c0.189,-0.376 0.961,-0.88 0.565,-1.129c-1.165,-0.728 -14.406,0.263 -18.623,1.129c-2.693,0.553 -3.094,1.866 -5.644,2.257c-3.683,0.566 -9.663,0.862 -15.237,-0.564c-6.79,-1.737 -16.124,-9.03 -22.573,-10.722c-4.964,-1.303 -8.472,-1.053 -12.98,-0.565c-4.867,0.528 -11.947,1.324 -15.237,3.951c-2.809,2.243 -3.657,5.049 -4.514,9.593c-1.298,6.882 -0.836,18.722 0.564,29.91c1.667,13.322 7.803,41.386 10.158,45.147c0.299,0.477 0.522,0.779 0.752,0.897c-0.092,-7.236 0.297,-14.188 0.941,-18.674zm138.262,-45.993c-13.909,2.157 -58.428,14.244 -76.75,20.316c-12.304,4.078 -19.38,7.309 -27.088,11.287c-3.635,1.876 -7.351,3.834 -10.53,5.817c-4.345,8.305 -8.008,19.577 -9.786,27.196c-0.61,2.617 -0.811,5.376 -0.849,8.038c0.086,0.803 0.181,1.605 0.285,2.403c1.455,11.138 5.815,36.801 9.594,37.81c3.016,0.805 6.09,-14.52 10.158,-19.752c3.603,-4.635 7.38,-7.244 12.415,-10.722c5.912,-4.083 12.21,-7.635 21.445,-11.851c12.526,-5.719 37.754,-15.123 49.097,-18.623c6.982,-2.155 9.886,-1.538 15.237,-3.386c6.048,-2.09 15.057,-4.449 19.187,-9.03c3.855,-4.275 4.969,-11.064 5.644,-16.93c0.687,-5.976 -0.024,-14.943 -1.693,-18.623c-1.06,-2.335 -2.36,-3.202 -4.515,-3.95c-2.83,-0.981 -5.352,-1.008 -11.851,0zm-238.149,29.91c-7.87,2.681 -19.384,6.772 -24.831,10.722c-3.886,2.819 -6.188,5.516 -7.336,9.029c-1.179,3.608 -0.384,8.236 0.564,12.416c1.013,4.467 1.495,9.407 5.644,13.544c5.845,5.829 18.583,10.509 31.038,15.237c15.267,5.795 40.896,10.167 55.305,15.801c10.998,4.301 18.482,11.027 25.959,13.544c5.783,1.947 13.618,5.144 15.237,2.258c2.303,-4.108 -9.169,-24.379 -14.108,-34.425c-4.333,-8.812 -10.141,-19.075 -13.544,-23.137c-1.825,-2.178 -3.76,-2.544 -4.515,-3.386c-0.414,-0.463 -0.241,-0.695 -0.564,-1.129c-0.469,-0.63 -1.454,-1.454 -2.258,-2.257c-0.879,-0.879 -1.384,-1.23 -2.821,-2.822c-2.367,-2.624 -9.327,-11.154 -12.896,-15.414c-1.674,-0.841 -3.477,-1.711 -5.445,-2.645c-7.001,-3.323 -19.653,-7.647 -30.812,-11.543c-4.639,0.961 -9.633,2.508 -14.617,4.207z" stroke-width=" 2px" stroke=" rgb(129, 151, 57)" fill=" rgb(166, 209, 48)"/>
 </g>
</svg>